<svg xmlns="http://www.w3.org/2000/svg" width="107" height="80" fill="none">
  <path fill="#222226" d="M72.3094 34.6366H11.0153v-23.536h61.2941v23.536Zm-59.9681-1.3367h58.6421V12.4358H12.3413v20.8641Z" />
  <path fill="#222226" d="M89.3603 57.6444H5.5053V5.5511h83.855v52.0933ZM6.8312 56.3077h81.2081V6.8864H6.8312v49.4213Z" />
  <path fill="#222226" d="M106.667 80.0028H0V0h106.667v80.0028ZM1.321 78.6661h104.02V1.3367H1.321v77.3294Z" />
  <path fill="#222226" fill-rule="evenodd" d="M24.496 23.157c0-2.3661-1.4409-3.4855-3.5276-3.4855h-1.3176v6.9709h1.3176c2.0872 0 3.5276-1.1204 3.5276-3.4854Zm-6.3283-4.8405H20.94c2.9254 0 5.0671 1.6739 5.0671 4.8405s-2.1417 4.84-5.0671 4.84h-2.7723v-9.6805ZM35.9386 24.5536c0 2.3368-1.5789 3.6379-3.749 3.6379-2.1702 0-3.7466-1.3006-3.7466-3.6379v-6.2381h1.4821v6.1946a2.174 2.174 0 0 0 .1235.9066c.1049.2898.2702.5537.4848.7737.2145.22.4734.3911.7591.5018.2857.1107.5916.1584.8971.1398a2.1276 2.1276 0 0 0 .898-.139 2.142 2.142 0 0 0 .7601-.5016 2.1628 2.1628 0 0 0 .4857-.774 2.1775 2.1775 0 0 0 .1241-.9073v-6.1926h1.4811v6.2361ZM37.9359 18.317h7.4127v1.357h-2.9668v8.3235h-1.4811V19.674h-2.9658l.001-1.357ZM55.6268 25.6463c-1.0009 1.6457-2.128 2.5452-4.1999 2.5452-2.733 0-4.7637-2.0759-4.7637-5.034a4.8822 4.8822 0 0 1 .3138-1.9178 4.8514 4.8514 0 0 1 1.036-1.6393 4.8047 4.8047 0 0 1 1.5915-1.0971 4.7737 4.7737 0 0 1 1.8911-.3784 4.3208 4.3208 0 0 1 2.4261.6291 4.3707 4.3707 0 0 1 1.679 1.8741l-1.1786.857c-.6875-1.3407-1.6354-2.0052-2.952-2.0052-1.8122 0-3.2958 1.5487-3.2958 3.6796 0 2.1016 1.3854 3.6775 3.282 3.6775 1.2897 0 2.3048-.6223 3.0331-2.0046l1.1374.8139ZM58.0921 18.317h1.4811v4.0652h4.4749V18.317h1.4846v9.6805h-1.4846v-4.2603h-4.4749v4.2603h-1.4811V18.317ZM19.1136 45.6053c0-2.3655-1.4404-3.4854-3.5271-3.4854h-1.3181v6.9709h1.3181c2.0872 0 3.5271-1.1194 3.5271-3.4855Zm-6.3278-4.84h2.7722c2.925 0 5.0667 1.6739 5.0667 4.84s-2.1417 4.84-5.0667 4.84h-2.7722v-9.68ZM25.4635 50.4453h1.4811v-9.6805h-1.4811v9.6805ZM39.4303 48.9516a3.249 3.249 0 0 1-1.2565 1.276 3.2137 3.2137 0 0 1-1.7362.4108c-2.705 0-4.6827-2.1155-4.6827-5.0341a4.929 4.929 0 0 1 .3278-1.9139 4.9 4.9 0 0 1 1.0406-1.6345 4.8541 4.8541 0 0 1 1.5895-1.0975 4.819 4.819 0 0 1 1.8878-.3876 4.4515 4.4515 0 0 1 2.3805.5961 4.5003 4.5003 0 0 1 1.7123 1.7704l-1.127.7877a3.2574 3.2574 0 0 0-1.2311-1.3549 3.221 3.221 0 0 0-1.7617-.471c-1.7984 0-3.3075 1.4526-3.3075 3.7062 0 2.1992 1.3038 3.6786 3.1975 3.6786 1.7434 0 2.6225-1.1204 2.8292-2.6265h-3.2412v-1.2323h4.7219v5.0197h-.9871l-.3561-1.4932ZM45.9177 50.4453h1.4812v-9.6805h-1.4812v9.6805ZM51.6926 40.7648h7.4111v1.3546H56.138v8.3259h-1.4812v-8.3259h-2.9657l.0015-1.3546ZM65.6771 43.3928 64.5093 46.45h2.9927l-1.1649-3.0572c-.1935-.4981-.3295-.9263-.3295-.9263s-.137.4282-.3305.9263Zm-.412-2.627h1.4846l3.8418 9.6805h-1.5641l-1.0313-2.6962h-3.9809l-1.0313 2.6962h-1.5651l3.8463-9.6805ZM74.8336 40.7648h1.4822v8.3527h4.8187v1.3278h-6.3009v-9.6805ZM12.0589 66.3565l-1.1678 3.0572h2.9928l-1.1679-3.0572c-.1915-.498-.3295-.9263-.3295-.9263s-.1365.4283-.3276.9263Zm-.413-2.6269h1.4826l3.8444 9.6805h-1.5661l-1.0314-2.6963h-3.9788l-1.0313 2.6963H7.8005l3.8453-9.6805ZM28.3168 71.9159a3.2473 3.2473 0 0 1-1.2564 1.2762 3.2127 3.2127 0 0 1-1.7364.4106c-2.7045 0-4.6821-2.1155-4.6821-5.0336a4.9267 4.9267 0 0 1 .3276-1.9139 4.8961 4.8961 0 0 1 1.0404-1.6347 4.8522 4.8522 0 0 1 1.5894-1.0977 4.8202 4.8202 0 0 1 1.8877-.3878 4.4519 4.4519 0 0 1 2.3804.5956 4.4998 4.4998 0 0 1 1.7125 1.77l-1.1266.7876a3.2586 3.2586 0 0 0-1.2311-1.3549 3.2212 3.2212 0 0 0-1.7617-.4709c-1.7984 0-3.3075 1.4526-3.3075 3.7067 0 2.1987 1.3038 3.6775 3.198 3.6775 1.7434 0 2.6225-1.1204 2.8292-2.624H24.939v-1.2332h4.7219v5.0202h-.9866l-.3575-1.4937ZM35.1185 63.7296h6.314v1.3278h-4.8329v2.6824h4.4489v1.3278h-4.4479v3.0146h4.8737v1.3279h-6.3548l-.001-9.6805ZM46.677 63.7291h1.5091l4.3124 6.7461c.151.2365.2889.4813.413.7332v-7.4793h1.4242v9.681h-1.5092l-4.3108-6.7471a7.3782 7.3782 0 0 1-.4111-.7323v7.4794H46.677v-9.681ZM68.44 71.0589c-1.0008 1.6457-2.1279 2.5447-4.1998 2.5447-2.733 0-4.7637-2.0754-4.7637-5.0335a4.883 4.883 0 0 1 .3132-1.918 4.8505 4.8505 0 0 1 1.0356-1.6397 4.8082 4.8082 0 0 1 1.5914-1.0976 4.7742 4.7742 0 0 1 1.8912-.3788 4.3195 4.3195 0 0 1 2.4255.629 4.3687 4.3687 0 0 1 1.6786 1.8737l-1.1756.858c-.6876-1.3407-1.6354-2.0052-2.952-2.0052-1.8122 0-3.2958 1.5487-3.2958 3.6796 0 2.1016 1.3854 3.6775 3.2815 3.6775 1.2901 0 2.3052-.6223 3.0335-2.0051l1.1364.8154ZM73.4684 73.4096h1.4811v-9.68h-1.4811v9.68ZM80.5451 63.7296h6.3141v1.3278h-4.8329v2.6824h4.4483v1.3278h-4.4483v3.0146h4.8736v1.3279h-6.3548v-9.6805ZM95.7225 67.7948c2.0705.401 3.1018 1.2723 3.1018 2.8898 0 1.563-1.3446 2.921-3.5143 2.921-2.291 0-3.6228-1.3278-3.9386-3.0562l1.3039-.6772c.2725 1.5897 1.1653 2.4338 2.6219 2.4338 1.2769 0 2.0445-.7055 2.0445-1.5625 0-1.0105-.7946-1.4536-2.4427-1.7704-1.7842-.3466-3.0881-1.2175-3.0881-2.8493 0-1.5347 1.3584-2.5863 3.2933-2.5863a3.5052 3.5052 0 0 1 2.1817.5972 3.5523 3.5523 0 0 1 1.3739 1.8099l-1.1786.6931a2.3891 2.3891 0 0 0-.8788-1.326 2.3553 2.3553 0 0 0-1.5109-.4726c-1.0151 0-1.88.4302-1.88 1.2595 0 .8713.8241 1.3689 2.5125 1.7001" clip-rule="evenodd" />
  <path fill="#222226" fill-rule="evenodd" d="M24.496 23.157c0-2.3661-1.4409-3.4855-3.5276-3.4855h-1.3176v6.9709h1.3176c2.0872 0 3.5276-1.1204 3.5276-3.4854Zm-6.3283-4.8405H20.94c2.9254 0 5.0671 1.6739 5.0671 4.8405s-2.1417 4.84-5.0671 4.84h-2.7723v-9.6805ZM35.9386 24.5536c0 2.3368-1.5789 3.6379-3.749 3.6379-2.1702 0-3.7466-1.3006-3.7466-3.6379v-6.2381h1.4821v6.1946a2.174 2.174 0 0 0 .1235.9066c.1049.2898.2702.5537.4848.7737.2145.22.4734.3911.7591.5018.2857.1107.5916.1584.8971.1398a2.1276 2.1276 0 0 0 .898-.139 2.142 2.142 0 0 0 .7601-.5016 2.1628 2.1628 0 0 0 .4857-.774 2.1775 2.1775 0 0 0 .1241-.9073v-6.1926h1.4811v6.2361ZM37.9359 18.317h7.4127v1.357h-2.9668v8.3235h-1.4811V19.674h-2.9658l.001-1.357ZM55.6268 25.6463c-1.0009 1.6457-2.128 2.5452-4.1999 2.5452-2.733 0-4.7637-2.0759-4.7637-5.034a4.8822 4.8822 0 0 1 .3138-1.9178 4.8514 4.8514 0 0 1 1.036-1.6393 4.8047 4.8047 0 0 1 1.5915-1.0971 4.7737 4.7737 0 0 1 1.8911-.3784 4.3208 4.3208 0 0 1 2.4261.6291 4.3707 4.3707 0 0 1 1.679 1.8741l-1.1786.857c-.6875-1.3407-1.6354-2.0052-2.952-2.0052-1.8122 0-3.2958 1.5487-3.2958 3.6796 0 2.1016 1.3854 3.6775 3.282 3.6775 1.2897 0 2.3048-.6223 3.0331-2.0046l1.1374.8139ZM58.0921 18.317h1.4811v4.0652h4.4749V18.317h1.4846v9.6805h-1.4846v-4.2603h-4.4749v4.2603h-1.4811V18.317ZM19.1136 45.6053c0-2.3655-1.4404-3.4854-3.5271-3.4854h-1.3181v6.9709h1.3181c2.0872 0 3.5271-1.1194 3.5271-3.4855Zm-6.3278-4.84h2.7722c2.925 0 5.0667 1.6739 5.0667 4.84s-2.1417 4.84-5.0667 4.84h-2.7722v-9.68ZM25.4635 50.4453h1.4811v-9.6805h-1.4811v9.6805ZM39.4303 48.9516a3.249 3.249 0 0 1-1.2565 1.276 3.2137 3.2137 0 0 1-1.7362.4108c-2.705 0-4.6827-2.1155-4.6827-5.0341a4.929 4.929 0 0 1 .3278-1.9139 4.9 4.9 0 0 1 1.0406-1.6345 4.8541 4.8541 0 0 1 1.5895-1.0975 4.819 4.819 0 0 1 1.8878-.3876 4.4515 4.4515 0 0 1 2.3805.5961 4.5003 4.5003 0 0 1 1.7123 1.7704l-1.127.7877a3.2574 3.2574 0 0 0-1.2311-1.3549 3.221 3.221 0 0 0-1.7617-.471c-1.7984 0-3.3075 1.4526-3.3075 3.7062 0 2.1992 1.3038 3.6786 3.1975 3.6786 1.7434 0 2.6225-1.1204 2.8292-2.6265h-3.2412v-1.2323h4.7219v5.0197h-.9871l-.3561-1.4932ZM45.9177 50.4453h1.4812v-9.6805h-1.4812v9.6805ZM51.6926 40.7648h7.4111v1.3546H56.138v8.3259h-1.4812v-8.3259h-2.9657l.0015-1.3546ZM65.6771 43.3928 64.5093 46.45h2.9927l-1.1649-3.0572c-.1935-.4981-.3295-.9263-.3295-.9263s-.137.4282-.3305.9263Zm-.412-2.627h1.4846l3.8418 9.6805h-1.5641l-1.0313-2.6962h-3.9809l-1.0313 2.6962h-1.5651l3.8463-9.6805ZM74.8336 40.7648h1.4822v8.3527h4.8187v1.3278h-6.3009v-9.6805ZM12.0589 66.3565l-1.1678 3.0572h2.9928l-1.1679-3.0572c-.1915-.498-.3295-.9263-.3295-.9263s-.1365.4283-.3276.9263Zm-.413-2.6269h1.4826l3.8444 9.6805h-1.5661l-1.0314-2.6963h-3.9788l-1.0313 2.6963H7.8005l3.8453-9.6805ZM28.3168 71.9159a3.2473 3.2473 0 0 1-1.2564 1.2762 3.2127 3.2127 0 0 1-1.7364.4106c-2.7045 0-4.6821-2.1155-4.6821-5.0336a4.9267 4.9267 0 0 1 .3276-1.9139 4.8961 4.8961 0 0 1 1.0404-1.6347 4.8522 4.8522 0 0 1 1.5894-1.0977 4.8202 4.8202 0 0 1 1.8877-.3878 4.4519 4.4519 0 0 1 2.3804.5956 4.4998 4.4998 0 0 1 1.7125 1.77l-1.1266.7876a3.2586 3.2586 0 0 0-1.2311-1.3549 3.2212 3.2212 0 0 0-1.7617-.4709c-1.7984 0-3.3075 1.4526-3.3075 3.7067 0 2.1987 1.3038 3.6775 3.198 3.6775 1.7434 0 2.6225-1.1204 2.8292-2.624H24.939v-1.2332h4.7219v5.0202h-.9866l-.3575-1.4937ZM35.1185 63.7296h6.314v1.3278h-4.8329v2.6824h4.4489v1.3278h-4.4479v3.0146h4.8737v1.3279h-6.3548l-.001-9.6805ZM46.677 63.7291h1.5091l4.3124 6.7461c.151.2365.2889.4813.413.7332v-7.4793h1.4242v9.681h-1.5092l-4.3108-6.7471a7.3782 7.3782 0 0 1-.4111-.7323v7.4794H46.677v-9.681ZM68.44 71.0589c-1.0008 1.6457-2.1279 2.5447-4.1998 2.5447-2.733 0-4.7637-2.0754-4.7637-5.0335a4.883 4.883 0 0 1 .3132-1.918 4.8505 4.8505 0 0 1 1.0356-1.6397 4.8082 4.8082 0 0 1 1.5914-1.0976 4.7742 4.7742 0 0 1 1.8912-.3788 4.3195 4.3195 0 0 1 2.4255.629 4.3687 4.3687 0 0 1 1.6786 1.8737l-1.1756.858c-.6876-1.3407-1.6354-2.0052-2.952-2.0052-1.8122 0-3.2958 1.5487-3.2958 3.6796 0 2.1016 1.3854 3.6775 3.2815 3.6775 1.2901 0 2.3052-.6223 3.0335-2.0051l1.1364.8154ZM73.4684 73.4096h1.4811v-9.68h-1.4811v9.68ZM80.5451 63.7296h6.3141v1.3278h-4.8329v2.6824h4.4483v1.3278h-4.4483v3.0146h4.8736v1.3279h-6.3548v-9.6805Z" clip-rule="evenodd" />
</svg>